#Comment line ignore any data following # character 
#Hierarchical Translation and Rotation (.htr) file 
[Header]	
#Header keywords are followed by a single value 
FileType HTR		#Single word string
DataType HTRS		#Translation followed by rotation and scale data
FileVersion 1		#integer
NumSegments 64		#integer
NumFrames 3		#integer
DataFrameRate 30		#integer, data frame rate in this file
EulerRotationOrder ZYX
CalibrationUnits mm
RotationUnits Degrees
GlobalAxisofGravity Y
BoneLengthAxis Y
ScaleFactor 1.00
[SegmentNames&Hierarchy]
#CHILD	PARENT
Pinger_Root GLOBAL
Pelvis Pinger_Root
L_Hip Pelvis
R_Hip Pelvis
Rear_Leg01 Pelvis
Spine1 Pelvis
L_Leg01 L_Hip
L_Leg02 L_Leg01
L_Leg03 L_Leg02
L_Foot L_Leg03
L_Toe1_01 L_Foot
L_Toe2_01 L_Foot
L_Toe3_01 L_Foot
planeAlignerLeft L_Foot
L_Toe1_02 L_Toe1_01
L_Toe1_03 L_Toe1_02
L_Toe2_02 L_Toe2_01
L_Toe2_03 L_Toe2_02
L_Toe3_02 L_Toe3_01
L_Toe3_03 L_Toe3_02
planeLockWeightLeft planeAlignerLeft
R_Leg01 R_Hip
R_Leg02 R_Leg01
R_Leg03 R_Leg02
R_Foot R_Leg03
planeAlignerRight R_Foot
R_Toe1_01 R_Foot
R_Toe2_01 R_Foot
R_Toe3_01 R_Foot
planeLockWeightRight planeAlignerRight
R_Toe1_02 R_Toe1_01
R_Toe1_03 R_Toe1_02
R_Toe2_02 R_Toe2_01
R_Toe2_03 R_Toe2_02
R_Toe3_02 R_Toe3_01
R_Toe3_03 R_Toe3_02
Rear_Leg02 Rear_Leg01
Rear_Leg03 Rear_Leg02
Rear_Leg04 Rear_Leg03
Rear_Foot Rear_Leg04
planeAlignerCenter Rear_Foot
Rear_Toe1_01 Rear_Foot
Rear_Toe2_01 Rear_Foot
Rear_Toe3_01 Rear_Foot
planeLockWeightCenter planeAlignerCenter
Rear_Toe1_02 Rear_Toe1_01
Rear_Toe1_03 Rear_Toe1_02
Rear_Toe2_02 Rear_Toe2_01
Rear_Toe2_03 Rear_Toe2_02
Rear_Toe3_02 Rear_Toe3_01
Rear_Toe3_03 Rear_Toe3_02
Back_Bone Spine1
Head Spine1
Motor_Bone Back_Bone
Ping_Mechanism Back_Bone
BN_LookIK Head
bottomMouth Head
L_Mouth01 Head
L_mouthFront Head
mouthGun Head
R_Mouth01 Head
R_mouthFront Head
TopMouth Head
weapon_bone Head
[BasePosition]
#SegmentName Tx, Ty, Tz, Rx, Ry, Rz, BoneLength
Pinger_Root 0.000000 0.000000 0.000000 -90.000000 0.000000 0.000000 10.000000 
Pelvis 0.000000 0.000000 0.000000 0.000000 0.000000 0.000000 10.000000 
L_Hip 0.000000 0.000000 0.000000 0.000000 0.000000 0.000000 10.000000 
R_Hip 0.000000 0.000000 0.000000 0.000000 0.000000 0.000000 10.000000 
Rear_Leg01 0.000000 0.000000 0.000000 0.000000 0.000000 0.000000 10.000000 
Spine1 0.000000 0.000000 0.000000 0.000000 0.000000 0.000000 10.000000 
L_Leg01 0.000000 0.000000 0.000000 0.000000 0.000000 0.000000 10.000000 
L_Leg02 0.000000 0.000000 0.000000 0.000000 0.000000 0.000000 10.000000 
L_Leg03 0.000000 0.000000 0.000000 0.000000 0.000000 0.000000 10.000000 
L_Foot 0.000000 0.000000 0.000000 0.000000 0.000000 0.000000 10.000000 
L_Toe1_01 0.000000 0.000000 0.000000 0.000000 0.000000 0.000000 10.000000 
L_Toe2_01 0.000000 0.000000 0.000000 0.000000 0.000000 0.000000 10.000000 
L_Toe3_01 0.000000 0.000000 0.000000 0.000000 0.000000 0.000000 10.000000 
planeAlignerLeft 0.000000 0.000000 0.000000 0.000000 0.000000 0.000000 10.000000 
L_Toe1_02 0.000000 0.000000 0.000000 0.000000 0.000000 0.000000 10.000000 
L_Toe1_03 0.000000 0.000000 0.000000 0.000000 0.000000 0.000000 10.000000 
L_Toe2_02 0.000000 0.000000 0.000000 0.000000 0.000000 0.000000 10.000000 
L_Toe2_03 0.000000 0.000000 0.000000 0.000000 0.000000 0.000000 10.000000 
L_Toe3_02 0.000000 0.000000 0.000000 0.000000 0.000000 0.000000 10.000000 
L_Toe3_03 0.000000 0.000000 0.000000 0.000000 0.000000 0.000000 10.000000 
planeLockWeightLeft 0.000000 0.000000 0.000000 0.000000 0.000000 0.000000 10.000000 
R_Leg01 0.000000 0.000000 0.000000 0.000000 0.000000 0.000000 10.000000 
R_Leg02 0.000000 0.000000 0.000000 0.000000 0.000000 0.000000 10.000000 
R_Leg03 0.000000 0.000000 0.000000 0.000000 0.000000 0.000000 10.000000 
R_Foot 0.000000 0.000000 0.000000 0.000000 0.000000 0.000000 10.000000 
planeAlignerRight 0.000000 0.000000 0.000000 0.000000 0.000000 0.000000 10.000000 
R_Toe1_01 0.000000 0.000000 0.000000 0.000000 0.000000 0.000000 10.000000 
R_Toe2_01 0.000000 0.000000 0.000000 0.000000 0.000000 0.000000 10.000000 
R_Toe3_01 0.000000 0.000000 0.000000 0.000000 0.000000 0.000000 10.000000 
planeLockWeightRight 0.000000 0.000000 0.000000 0.000000 0.000000 0.000000 10.000000 
R_Toe1_02 0.000000 0.000000 0.000000 0.000000 0.000000 0.000000 10.000000 
R_Toe1_03 0.000000 0.000000 0.000000 0.000000 0.000000 0.000000 10.000000 
R_Toe2_02 0.000000 0.000000 0.000000 0.000000 0.000000 0.000000 10.000000 
R_Toe2_03 0.000000 0.000000 0.000000 0.000000 0.000000 0.000000 10.000000 
R_Toe3_02 0.000000 0.000000 0.000000 0.000000 0.000000 0.000000 10.000000 
R_Toe3_03 0.000000 0.000000 0.000000 0.000000 0.000000 0.000000 10.000000 
Rear_Leg02 0.000000 0.000000 0.000000 0.000000 0.000000 0.000000 10.000000 
Rear_Leg03 0.000000 0.000000 0.000000 0.000000 0.000000 0.000000 10.000000 
Rear_Leg04 0.000000 0.000000 0.000000 0.000000 0.000000 0.000000 10.000000 
Rear_Foot 0.000000 0.000000 0.000000 0.000000 0.000000 0.000000 10.000000 
planeAlignerCenter 0.000000 0.000000 0.000000 0.000000 0.000000 0.000000 10.000000 
Rear_Toe1_01 0.000000 0.000000 0.000000 0.000000 0.000000 0.000000 10.000000 
Rear_Toe2_01 0.000000 0.000000 0.000000 0.000000 0.000000 0.000000 10.000000 
Rear_Toe3_01 0.000000 0.000000 0.000000 0.000000 0.000000 0.000000 10.000000 
planeLockWeightCenter 0.000000 0.000000 0.000000 0.000000 0.000000 0.000000 10.000000 
Rear_Toe1_02 0.000000 0.000000 0.000000 0.000000 0.000000 0.000000 10.000000 
Rear_Toe1_03 0.000000 0.000000 0.000000 0.000000 0.000000 0.000000 10.000000 
Rear_Toe2_02 0.000000 0.000000 0.000000 0.000000 0.000000 0.000000 10.000000 
Rear_Toe2_03 0.000000 0.000000 0.000000 0.000000 0.000000 0.000000 10.000000 
Rear_Toe3_02 0.000000 0.000000 0.000000 0.000000 0.000000 0.000000 10.000000 
Rear_Toe3_03 0.000000 0.000000 0.000000 0.000000 0.000000 0.000000 10.000000 
Back_Bone 0.000000 0.000000 0.000000 0.000000 0.000000 0.000000 10.000000 
Head 0.000000 0.000000 0.000000 0.000000 0.000000 0.000000 10.000000 
Motor_Bone 0.000000 0.000000 0.000000 0.000000 0.000000 0.000000 10.000000 
Ping_Mechanism 0.000000 0.000000 0.000000 0.000000 0.000000 0.000000 10.000000 
BN_LookIK 0.000000 0.000000 0.000000 0.000000 0.000000 0.000000 10.000000 
bottomMouth 0.000000 0.000000 0.000000 0.000000 0.000000 0.000000 10.000000 
L_Mouth01 0.000000 0.000000 0.000000 0.000000 0.000000 0.000000 10.000000 
L_mouthFront 0.000000 0.000000 0.000000 0.000000 0.000000 0.000000 10.000000 
mouthGun 0.000000 0.000000 0.000000 0.000000 0.000000 0.000000 10.000000 
R_Mouth01 0.000000 0.000000 0.000000 0.000000 0.000000 0.000000 10.000000 
R_mouthFront 0.000000 0.000000 0.000000 0.000000 0.000000 0.000000 10.000000 
TopMouth 0.000000 0.000000 0.000000 0.000000 0.000000 0.000000 10.000000 
weapon_bone 0.000000 0.000000 0.000000 0.000000 0.000000 0.000000 10.000000 
#Beginning of Data. Separated by tabs
#Fr	Tx	Ty	Tz	Rx	Ry	Rz	SF
[Pinger_Root]
35 0.000000 0.000000 0.000000 -0.000075 -0.000000 -0.000020 0.000000
36 0.000000 0.000000 0.000000 -0.000075 -0.000000 -0.000020 0.000000
37 0.000000 0.000000 0.000000 -0.000075 -0.000000 -0.000020 0.000000
[Pelvis]
35 -197.501755 95.692047 3581.389160 -76.377129 -68.325577 83.808632 3588.107178
36 -316.726746 168.817245 3458.542969 -104.608574 -70.226776 112.478836 3477.115967
37 -441.680389 229.022659 3383.925781 -128.169601 -68.078079 136.817093 3420.304932
[L_Hip]
35 5.766392 125.831482 872.656799 -152.293610 -41.845699 57.260994 881.701050
36 5.766392 125.831482 872.656799 -152.293610 -41.845699 57.260994 881.701050
37 5.766392 125.831482 872.656799 -152.293610 -41.845703 57.260994 881.701050
[R_Hip]
35 5.765438 125.836372 -872.654907 38.087826 49.812672 125.703735 881.699829
36 5.765438 125.836372 -872.654907 38.087841 49.812687 125.703735 881.699829
37 5.765438 125.836372 -872.654907 38.087841 49.812698 125.703735 881.699829
[Rear_Leg01]
35 -192.298416 -925.602966 -0.001907 -153.583389 -18.508249 -141.793701 945.367432
36 -192.298416 -925.602966 -0.001907 -160.807907 -24.373091 -135.148392 945.367432
37 -192.298416 -925.602966 -0.001907 -167.559219 -28.642056 -128.739914 945.367432
[Spine1]
35 290.604584 5.007505 0.000477 -10.663821 8.382277 2.156653 290.647736
36 290.604584 5.007505 0.000477 -8.425759 16.690460 8.523343 290.647736
37 290.604584 5.007505 0.000477 -5.745733 22.808952 15.177629 290.647736
[L_Leg01]
35 761.932007 -0.002384 -0.069261 17.849297 -41.902607 -24.506285 761.932068
36 761.932007 -0.002384 -0.069261 33.272480 -32.187122 -39.264805 761.932068
37 761.932007 -0.002384 -0.069261 40.860031 -21.263060 -44.192013 761.932068
[L_Leg02]
35 1441.140503 -0.000954 -0.000715 -5.563562 1.170081 -120.234459 1441.140503
36 1441.140503 -0.000954 -0.000715 -5.552085 0.462687 -107.004631 1441.140503
37 1441.140503 -0.000954 -0.000715 -1.635677 -0.122435 -98.153328 1441.140503
[L_Leg03]
35 1686.963989 -0.000715 -0.000954 -0.007320 0.004995 112.138077 1686.963989
36 1686.963989 -0.000715 -0.000954 -0.034057 0.012535 119.340179 1686.963989
37 1686.963989 -0.000715 -0.000954 -0.064037 0.032611 127.188095 1686.963989
[L_Foot]
35 3041.570068 -30.715107 11.297464 -33.935001 21.393660 32.933891 3041.746094
36 3041.570068 -30.715107 11.297464 -30.479801 18.276531 27.552479 3041.746094
37 3041.570068 -30.715107 11.297464 -26.744081 16.245985 21.705526 3041.746094
[L_Toe1_01]
35 -188.216690 -224.732346 -21.137953 83.736877 -8.848241 -165.416367 293.899567
36 -188.216690 -224.732346 -21.137953 79.859352 -18.200012 176.067123 293.899567
37 -188.216690 -224.732346 -21.137953 80.517761 -19.318720 168.208939 293.899567
[L_Toe2_01]
35 200.746536 -219.926590 148.838394 -67.794693 -11.487378 -79.487259 332.896027
36 200.746536 -219.926590 148.838394 -70.739395 -24.313807 -58.769291 332.896027
37 200.746536 -219.926590 148.838394 -73.238319 -26.900513 -51.350342 332.896027
[L_Toe3_01]
35 188.832520 -219.859131 -191.078659 -116.412750 20.086901 -79.940880 347.140900
36 188.832520 -219.859131 -191.078659 -109.609505 34.577408 -50.291050 347.140900
37 188.832520 -219.859131 -191.078659 -103.855606 37.992302 -37.445152 347.140900
[planeAlignerLeft]
35 -17.526335 -867.580078 76.156265 -10.779993 -85.596069 -89.943390 871.092468
36 8.498335 -526.656006 189.938843 -10.797216 -86.014633 -89.925606 559.924561
37 29.020229 -419.564117 195.278427 -10.758427 -85.712662 -89.964462 463.691589
[L_Toe1_02]
35 413.761139 0.000477 0.000000 0.001416 -21.967869 0.001416 413.761139
36 413.761139 0.000477 0.000000 0.001423 -21.132147 0.001423 413.761139
37 413.761139 0.000477 0.000000 0.001433 -19.955994 0.001433 413.761139
[L_Toe1_03]
35 464.317322 0.000358 -0.000089 0.019232 83.002686 0.019232 464.317322
36 464.317322 0.000358 -0.000089 0.036295 86.293922 0.036295 464.317322
37 464.317322 0.000358 -0.000089 179.781708 89.382927 179.781708 464.317322
[L_Toe2_02]
35 342.235809 -0.000477 0.000238 0.001192 -69.727821 0.001192 342.235809
36 342.235809 -0.000477 0.000238 0.001189 -71.686554 0.001189 342.235809
37 342.235809 -0.000477 0.000238 0.001184 -74.518616 0.001184 342.235809
[L_Toe2_03]
35 420.210846 -0.000715 0.000000 0.012212 78.970345 0.012212 420.210846
36 420.210846 -0.000715 0.000000 0.020976 83.585190 0.020976 420.210846
37 420.210846 -0.000715 0.000000 -179.951996 88.676323 -179.948486 420.210846
[L_Toe3_02]
35 329.270111 0.000954 0.000000 0.001179 -79.498917 0.001179 329.270111
36 329.270111 0.000954 0.000000 0.004676 -84.532806 0.004676 329.270111
37 329.270111 0.000954 0.000000 0.004675 -84.753540 0.004675 329.270111
[L_Toe3_03]
35 439.137451 -0.001907 0.000954 -179.993195 82.305069 -179.989685 439.137451
36 439.137451 -0.001907 0.000954 179.992706 51.996246 -179.999908 439.137451
37 439.137451 -0.001907 0.000954 179.993134 45.335133 -179.999313 439.137451
[planeLockWeightLeft]
35 999.999817 -0.000015 -0.000281 -0.011826 -0.004376 0.005620 999.999817
36 999.999878 -0.000029 -0.000275 -0.011826 -0.004376 0.005620 999.999878
37 999.999878 -0.000044 -0.000270 -0.011826 -0.004376 0.005620 999.999878
[R_Leg01]
35 761.455627 -0.001907 -0.000358 164.466904 -19.239815 -27.570715 761.455688
36 761.455627 -0.001907 -0.000358 166.517563 -17.829020 -17.178202 761.455688
37 761.455627 -0.001907 -0.000358 167.075867 -16.018112 -5.283253 761.455688
[R_Leg02]
35 1441.140625 0.000000 -0.000238 -0.480261 -0.036874 -131.963715 1441.140625
36 1441.140625 0.000000 -0.000238 -0.473746 -0.034191 -131.920502 1441.140625
37 1441.140625 0.000000 -0.000238 -0.373067 -0.019563 -126.760475 1441.140625
[R_Leg03]
35 1686.963989 0.000954 0.001431 0.038452 -0.014127 120.539864 1686.963989
36 1686.963989 0.000954 0.001431 0.034217 -0.016457 120.129379 1686.963989
37 1686.963989 0.000954 0.001431 0.031002 -0.015223 118.932175 1686.963989
[R_Foot]
35 3041.560059 -30.531288 -11.204481 -2.373748 8.808681 38.983017 3041.734131
36 3041.560059 -30.531288 -11.204481 -1.046361 9.041805 41.599232 3041.734131
37 3041.560059 -30.531288 -11.204481 0.477338 9.204280 42.340408 3041.734131
[planeAlignerRight]
35 129.759888 -411.652435 -405.832367 -25.447453 -64.905464 -74.689957 592.448547
36 116.425278 -469.388367 -410.515259 -25.447453 -64.905464 -74.689957 634.352478
37 83.800301 -521.512390 -401.813080 -25.447453 -64.905464 -74.689957 663.665161
[R_Toe1_01]
35 -188.383347 -224.864899 21.052242 41.902405 13.799666 169.808594 294.101532
36 -188.383347 -224.864899 21.052242 42.165871 14.429152 173.905777 294.101532
37 -188.383347 -224.864899 21.052242 43.033165 14.738853 178.153442 294.101532
[R_Toe2_01]
35 200.637817 -220.002121 -148.787384 -84.491821 50.000080 -38.859825 332.857574
36 200.637817 -220.002121 -148.787384 -88.460770 48.990810 -45.486469 332.857574
37 200.637817 -220.002121 -148.787384 -91.393684 47.958782 -50.784157 332.857574
[R_Toe3_01]
35 188.606735 -220.092957 191.126343 -56.975201 -0.746937 -64.567566 347.192566
36 188.606735 -220.092957 191.126343 -57.334064 0.550091 -68.426109 347.192566
37 188.606735 -220.092957 191.126343 -57.471794 0.673880 -72.258415 347.192566
[planeLockWeightRight]
35 999.999634 0.000305 -0.000408 -0.011823 -0.004379 -0.000027 999.999634
36 999.999634 0.000305 -0.000415 -0.011823 -0.004379 -0.000027 999.999634
37 999.999573 0.000305 -0.000423 -0.011823 -0.004379 -0.000027 999.999573
[R_Toe1_02]
35 413.762085 0.000477 -0.000119 0.001430 -20.297544 0.001430 413.762085
36 413.762085 0.000477 -0.000119 0.001425 -20.925894 0.001425 413.762085
37 413.762085 0.000477 -0.000119 0.001415 -22.129084 0.001415 413.762085
[R_Toe1_03]
35 464.317810 0.000000 0.001088 0.000000 89.452133 0.003491 464.317810
36 464.317810 0.000000 0.001088 -0.024542 87.110184 -0.021044 464.317810
37 464.317810 0.000000 0.001088 -0.010369 82.350677 -0.006864 464.317810
[R_Toe2_02]
35 342.234741 -0.000954 0.000238 -0.002334 -79.100807 -0.002334 342.234741
36 342.234741 -0.000954 0.000238 -0.002334 -78.710098 -0.002334 342.234741
37 342.234741 -0.000954 0.000238 -0.002334 -78.882912 -0.002334 342.234741
[R_Toe2_03]
35 420.210846 0.000715 -0.000268 -179.995026 69.328575 -179.998566 420.210846
36 420.210846 0.000715 -0.000268 -179.994644 71.574768 -179.998184 420.210846
37 420.210846 0.000715 -0.000268 -179.994797 70.681053 -179.998352 420.210846
[R_Toe3_02]
35 329.270355 -0.000477 -0.000954 0.001181 -77.430389 0.001181 329.270355
36 329.270355 -0.000477 -0.000954 0.001184 -75.022797 0.001184 329.270355
37 329.270355 -0.000477 -0.000954 0.001187 -73.053024 0.001187 329.270355
[R_Toe3_03]
35 439.137939 0.000238 0.001431 -179.943466 88.869789 -179.939972 439.137939
36 439.137939 0.000238 0.001431 -0.013900 84.577431 -0.010400 439.137939
37 439.137939 0.000238 0.001431 0.013328 79.896347 0.013328 439.137939
[Rear_Leg02]
35 1162.777710 -0.029802 0.005960 1.046417 -2.393726 -93.684013 1162.777710
36 1162.777710 -0.029802 0.005960 2.957368 -5.317969 -98.914711 1162.777710
37 1162.777710 -0.029802 0.005960 5.781308 -8.855324 -102.912422 1162.777710
[Rear_Leg03]
35 607.192505 -0.013351 -0.073195 0.010450 -0.005192 69.196342 607.192505
36 607.192505 -0.013351 -0.073195 0.010372 -0.005346 70.893387 607.192505
37 607.192505 -0.013351 -0.073195 0.010317 -0.005451 72.057167 607.192505
[Rear_Leg04]
35 995.874512 -0.020504 -0.011921 -0.040409 -0.018333 68.554688 995.874573
36 995.874512 -0.020504 -0.011921 -0.041018 -0.016928 72.510338 995.874573
37 995.874512 -0.020504 -0.011921 -0.041423 -0.015910 75.339058 995.874573
[Rear_Foot]
35 3096.176270 -0.067472 -0.041425 -15.554786 81.388603 170.720032 3096.176270
36 3096.176270 -0.067472 -0.041425 -31.706684 79.975342 155.527481 3096.176270
37 3096.176270 -0.067472 -0.041425 -48.859829 77.969360 139.193619 3096.176270
[planeAlignerCenter]
35 113.678474 -60.474613 -728.111023 12.240772 -0.001473 179.998184 739.408997
36 88.953583 -17.789633 -738.268799 12.240773 -0.001473 179.998184 743.821228
37 59.037624 25.164164 -747.909302 12.240773 -0.001473 179.998184 750.657715
[Rear_Toe1_01]
35 0.653352 83.966492 -371.173737 -3.859725 37.453049 83.337387 380.553192
36 0.653352 83.966492 -371.173737 -2.862747 39.093239 84.955894 380.553192
37 0.653352 83.966492 -371.173737 -1.743069 40.550014 86.850327 380.553192
[Rear_Toe2_01]
35 178.200760 -294.826019 -362.060547 -6.785757 29.142471 -61.816757 499.765686
36 178.200760 -294.826019 -362.060547 -6.681876 31.523396 -61.927753 499.765686
37 178.200760 -294.826019 -362.060547 -6.541063 33.006584 -62.151321 499.765686
[Rear_Toe3_01]
35 -153.359680 -308.780914 -362.060852 4.661821 30.972313 -105.521507 499.952881
36 -153.359680 -308.780914 -362.060852 4.317727 31.935755 -107.641586 499.952881
37 -153.359680 -308.780914 -362.060852 3.808009 32.620029 -110.244453 499.952881
[planeLockWeightCenter]
35 1000.000488 0.000305 -0.000032 -0.011814 -0.004373 -0.000015 1000.000488
36 1000.000488 0.000305 -0.000024 -0.011814 -0.004373 -0.000015 1000.000488
37 1000.000488 0.000305 -0.000016 -0.011814 -0.004373 -0.000015 1000.000488
[Rear_Toe1_02]
35 379.707825 0.194073 0.000477 0.001332 -33.469822 0.001332 379.707855
36 379.707825 0.194073 0.000477 -0.000315 -32.675323 0.006975 379.707855
37 379.707825 0.194073 0.000477 -0.000159 -30.521698 0.006890 379.707855
[Rear_Toe1_03]
35 500.129700 0.165701 0.000119 -0.004735 67.552261 -0.001170 500.129761
36 500.129700 0.165701 0.000119 -0.003912 58.143154 -0.000276 500.129761
37 500.129700 0.165701 0.000119 -0.000582 46.722038 0.006979 500.129761
[Rear_Toe2_02]
35 340.494507 0.000238 -0.000954 0.001227 -56.207306 0.001227 340.494507
36 340.494507 0.000238 -0.000954 0.001203 -64.592415 0.001203 340.494507
37 340.494507 0.000238 -0.000954 0.001189 -71.619408 0.001189 340.494507
[Rear_Toe2_03]
35 433.103577 0.000000 0.000238 0.003554 51.440819 0.003554 433.103546
36 433.103577 0.000000 0.000238 0.004885 62.195641 0.004885 433.103546
37 433.103577 0.000000 0.000238 0.007754 72.590019 0.007754 433.103546
[Rear_Toe3_02]
35 340.494141 -0.000358 -0.000477 0.004933 -68.209244 -0.004323 340.494171
36 340.494141 -0.000358 -0.000477 0.001188 -72.205971 0.001188 340.494171
37 340.494141 -0.000358 -0.000477 0.001183 -75.434860 0.001183 340.494171
[Rear_Toe3_03]
35 433.103577 0.001431 -0.000238 0.005949 67.242973 0.005949 433.103546
36 433.103577 0.001431 -0.000238 0.008195 73.531754 0.008195 433.103546
37 433.103577 0.001431 -0.000238 0.012219 78.976875 0.012219 433.103546
[Back_Bone]
35 1312.175781 -701.934692 0.000954 2.790756 -1.457651 -85.682373 1488.125488
36 1312.175781 -701.934692 0.000954 2.790756 -1.457651 -85.682373 1488.125488
37 1312.175781 -701.934692 0.000954 2.790756 -1.457651 -85.682373 1488.125488
[Head]
35 1406.159424 809.709290 0.001431 -1.623609 2.697531 7.613082 1622.625488
36 1406.159424 809.709290 0.001431 -1.623609 2.697531 7.613082 1622.625488
37 1406.159424 809.709290 0.001431 -1.623609 2.697531 7.613082 1622.625488
[Motor_Bone]
35 1158.364380 -417.834747 0.000477 3.394448 -1.301977 -115.970810 1231.419434
36 1158.364380 -417.834747 0.000477 3.394448 -1.301977 -115.970810 1231.419434
37 1158.364380 -417.834747 0.000477 3.394448 -1.301977 -115.970810 1231.419434
[Ping_Mechanism]
35 1319.011597 -467.210022 0.563700 0.000103 -0.000053 82.120995 1399.313110
36 1298.469116 -463.004761 -46.831036 0.000103 -0.000053 82.120995 1379.343506
37 1281.068848 -454.576477 -86.825142 0.000103 -0.000053 82.120995 1362.099731
[BN_LookIK]
35 193.241119 1380.371704 -0.002861 0.000000 89.965736 -31.038179 1393.832153
36 193.241119 1380.371704 -0.002861 0.000000 89.965736 -31.038179 1393.832153
37 193.241119 1380.371704 -0.002861 0.000000 89.965736 -31.038179 1393.832153
[bottomMouth]
35 -435.092926 615.759399 -0.000954 -0.000022 0.000016 73.527184 753.966492
36 -435.092926 615.759399 -0.000954 -0.000022 0.000016 73.527184 753.966492
37 -435.092926 615.759399 -0.000954 -0.000022 0.000016 73.527184 753.966492
[L_Mouth01]
35 554.440979 7.658243 838.222046 150.204178 23.759130 109.605339 1005.027161
36 554.440979 7.658243 838.222046 150.204178 23.759130 109.605339 1005.027161
37 554.440979 7.658243 838.222046 150.204178 23.759130 109.605339 1005.027161
[L_mouthFront]
35 551.629089 934.514771 339.150421 0.000081 2.804060 79.119301 1136.941284
36 551.629089 934.514771 339.150421 0.000081 2.804060 79.119301 1136.941284
37 551.629089 934.514771 339.150421 0.000081 2.804060 79.119301 1136.941284
[mouthGun]
35 55.332661 1627.420898 0.000000 0.000023 0.000009 -11.038128 1628.361328
36 55.332661 1627.420898 0.000000 0.000023 0.000009 -11.038128 1628.361328
37 55.332661 1627.420898 0.000000 0.000023 0.000009 -11.038128 1628.361328
[R_Mouth01]
35 554.442383 7.659197 -838.223938 29.795891 -23.759109 109.605331 1005.029541
36 554.442383 7.659197 -838.223938 29.795891 -23.759109 109.605331 1005.029541
37 554.442383 7.659197 -838.223938 29.795891 -23.759109 109.605331 1005.029541
[R_mouthFront]
35 551.629089 934.514282 -339.151367 0.000029 -2.803930 79.119133 1136.941162
36 551.629089 934.514282 -339.151367 0.000029 -2.803930 79.119133 1136.941162
37 551.629089 934.514282 -339.151367 0.000029 -2.803930 79.119133 1136.941162
[TopMouth]
35 461.269867 -56.106091 -0.008583 -0.000059 -0.000268 92.025169 464.669525
36 461.269867 -56.106091 -0.008583 -0.000059 -0.000268 92.025169 464.669525
37 461.269867 -56.106091 -0.008583 -0.000059 -0.000268 92.025169 464.669525
[weapon_bone]
35 -987.239868 1448.372803 0.001431 0.000000 89.965736 -31.038221 1752.833740
36 -987.239868 1448.372803 0.001431 0.000000 89.965736 -31.038221 1752.833740
37 -987.239868 1448.372803 0.001431 0.000000 89.965736 -31.038221 1752.833740
